HIERARCHY
ROOT Hips
{
	OFFSET 0.00000 0.00000 0.00000
	CHANNELS 6 Xposition Yposition Zposition Zrotation Yrotation Xrotation 
	JOINT LHipJoint
	{
		OFFSET 0 0 0
		CHANNELS 3 Zrotation Yrotation Xrotation
		JOINT LeftUpLeg
		{
			OFFSET 1.32989 -1.57253 0.78074
			CHANNELS 3 Zrotation Yrotation Xrotation
			JOINT LeftLeg
			{
				OFFSET 2.24323 -6.16323 0.00000
				CHANNELS 3 Zrotation Yrotation Xrotation
				JOINT LeftFoot
				{
					OFFSET 2.32677 -6.39275 0.00000
					CHANNELS 3 Zrotation Yrotation Xrotation
					JOINT LeftToeBase
					{
						OFFSET 0.18686 -0.51340 1.95973
						CHANNELS 3 Zrotation Yrotation Xrotation
						End Site
						{
							OFFSET 0.00000 -0.00000 1.02033
						}
					}
				}
			}
		}
	}
	JOINT RHipJoint
	{
		OFFSET 0 0 0
		CHANNELS 3 Zrotation Yrotation Xrotation
		JOINT RightUpLeg
		{
			OFFSET -1.27392 -1.57253 0.78074
			CHANNELS 3 Zrotation Yrotation Xrotation
			JOINT RightLeg
			{
				OFFSET -2.19978 -6.04385 0.00000
				CHANNELS 3 Zrotation Yrotation Xrotation
				JOINT RightFoot
				{
					OFFSET -2.29380 -6.30216 0.00000
					CHANNELS 3 Zrotation Yrotation Xrotation
					JOINT RightToeBase
					{
						OFFSET -0.24624 -0.67655 1.94854
						CHANNELS 3 Zrotation Yrotation Xrotation
						End Site
						{
							OFFSET -0.00000 -0.00000 1.03267
						}
					}
				}
			}
		}
	}
	JOINT LowerBack
	{
		OFFSET 0 0 0
		CHANNELS 3 Zrotation Yrotation Xrotation
		JOINT Spine
		{
			OFFSET -0.05982 2.08655 0.02100
			CHANNELS 3 Zrotation Yrotation Xrotation
			JOINT Spine1
			{
				OFFSET 0.04735 2.08455 -0.01795
				CHANNELS 3 Zrotation Yrotation Xrotation
				JOINT Neck
				{
					OFFSET 0 0 0
					CHANNELS 3 Zrotation Yrotation Xrotation
					JOINT Neck1
					{
						OFFSET -0.10038 1.43781 0.03084
						CHANNELS 3 Zrotation Yrotation Xrotation
						JOINT Head
						{
							OFFSET 0.07701 1.43632 -0.18495
							CHANNELS 3 Zrotation Yrotation Xrotation
							End Site
							{
								OFFSET 0.02744 1.45633 -0.07361
							}
						}
					}
				}
				JOINT LeftShoulder
				{
					OFFSET 0 0 0
					CHANNELS 3 Zrotation Yrotation Xrotation
					JOINT LeftArm
					{
						OFFSET 2.75061 0.74389 0.25227
						CHANNELS 3 Zrotation Yrotation Xrotation
						JOINT LeftForeArm
						{
							OFFSET 4.36901 -0.00000 0.00000
							CHANNELS 3 Zrotation Yrotation Xrotation
							JOINT LeftHand
							{
								OFFSET 3.21737 -0.00000 -0.00000
								CHANNELS 3 Zrotation Yrotation Xrotation
								JOINT LeftFingerBase
								{
									OFFSET 0 0 0
									CHANNELS 3 Zrotation Yrotation Xrotation
									JOINT LeftHandIndex1
									{
										OFFSET 0.56431 -0.00000 0.00000
										CHANNELS 3 Zrotation Yrotation Xrotation
										End Site
										{
											OFFSET 0.45496 -0.00000 0.00000
										}
									}
								}
								JOINT LThumb
								{
									OFFSET 0 0 0
									CHANNELS 3 Zrotation Yrotation Xrotation
									End Site
									{
										OFFSET 0.46191 -0.00000 0.46191
									}
								}
							}
						}
					}
				}
				JOINT RightShoulder
				{
					OFFSET 0 0 0
					CHANNELS 3 Zrotation Yrotation Xrotation
					JOINT RightArm
					{
						OFFSET -2.97379 0.79094 0.48377
						CHANNELS 3 Zrotation Yrotation Xrotation
						JOINT RightForeArm
						{
							OFFSET -4.34118 -0.00000 -0.00000
							CHANNELS 3 Zrotation Yrotation Xrotation
							JOINT RightHand
							{
								OFFSET -3.09531 -0.00000 0.00000
								CHANNELS 3 Zrotation Yrotation Xrotation
								JOINT RightFingerBase
								{
									OFFSET 0 0 0
									CHANNELS 3 Zrotation Yrotation Xrotation
									JOINT RightHandIndex1
									{
										OFFSET -0.59745 -0.00000 0.00000
										CHANNELS 3 Zrotation Yrotation Xrotation
										End Site
										{
											OFFSET -0.48168 -0.00000 0.00000
										}
									}
								}
								JOINT RThumb
								{
									OFFSET 0 0 0
									CHANNELS 3 Zrotation Yrotation Xrotation
									End Site
									{
										OFFSET -0.48903 -0.00000 0.48903
									}
								}
							}
						}
					}
				}
			}
		}
	}
}
MOTION
Frames: 8
Frame Time: 0.0526316
0.00 0.00 0.00 0 0 0 0 0 0 -21 0 0 0 0 0 0 0 0 0 0 0 0 0 0 21 0 0 0 0 0 0 0 0 0 0 0 0 0 0 0 0 0 0 0 0 0 0 -16 0 0 21 0 0 11 0 0 0 -8 0 0 0 0 0 0 0 0 0 0 0 0 0 0 0 0 0 0 0 0 8 0 0 0 0 0 0 0 0 0 0 0 0 0 0 0 0 0
0.00 0.00 0.00 1.3974 6.5086 13.2347 0.0000 0.0000 0.0000 -10.9028 -14.2090 -35.5755 5.6765 14.1074 43.6693 0.8260 -6.7243 -16.2239 0.1094 -2.1323 -5.8715 0.0000 0.0000 0.0000 11.8555 14.3745 -30.7641 -5.1898 -13.5944 41.6363 -1.3347 -6.1743 -24.8425 -0.1191 2.2253 -6.1288 -2.1293 -7.1121 2.4110 4.4711 -9.5262 0.8581 5.8844 -4.8186 0.6591 -14.2035 -0.3585 -9.8915 3.5095 1.3467 21.4071 3.6732 -0.1673 8.1989 -0.0000 -0.0000 0.0000 -81.7647 -26.3151 49.2163 23.2078 -34.3152 -7.2551 -0.0000 0.0000 -10.6138 18.4781 51.1123 14.5801 -7.1250 0.0000 -0.0000 -55.9560 77.6111 -44.9193 -0.0000 -0.0000 0.0000 49.5779 -20.6817 -1.8181 -11.0616 18.3826 -1.7953 0.0000 0.0000 10.9314 -12.8384 15.4245 -3.4687 7.1250 -0.0000 -0.0000 9.9555 -14.3453 7.2914
0.00 0.00 0.00 -0.0687 2.8605 22.6780 0.0000 0.0000 0.0000 -4.9751 -10.5677 -63.7498 10.1946 17.5178 60.1368 0.7101 -11.5360 -15.9637 0.0016 -0.2549 -0.7003 0.0000 0.0000 0.0000 6.7246 14.3018 -60.3788 -9.6829 -17.2276 58.4231 -1.4437 2.8489 -21.9672 -0.1110 2.1477 -5.9140 -1.7084 -6.8992 9.4662 3.8689 -9.1681 1.3571 6.0021 -4.5362 -2.9306 -13.1542 1.8322 -6.8903 5.5200 3.3038 11.4704 4.0263 1.3784 4.2580 -0.0000 0.0000 0.0000 -80.1699 -28.0921 51.2413 24.8054 -36.0044 -8.1752 -0.0000 0.0000 -11.4985 24.0704 49.8725 18.8578 -7.1250 0.0000 -0.0000 -46.5657 79.3570 -38.2910 -0.0000 0.0000 0.0000 52.8066 -21.5939 -3.5943 -11.7660 19.4528 -2.0237 0.0000 0.0000 5.2291 -12.7574 14.2892 -3.1985 7.1250 -0.0000 -0.0000 10.0177 -15.4930 7.0885
0.00 0.00 0.00 -1.7353 -0.6480 28.2807 0.0000 0.0000 0.0000 -6.6751 1.0289 -85.5903 15.6378 19.5375 77.1507 1.1665 0.8874 -20.7512 0.0301 -1.1192 -3.0768 0.0000 0.0000 0.0000 6.2745 12.4026 -81.5451 -14.8655 -19.3558 74.8311 -1.6660 -5.6557 -26.9752 -0.0016 0.2619 -0.7195 -3.3446 -6.4228 11.8832 3.7863 -8.7307 1.1460 7.1302 -4.2391 -4.2975 -12.3579 3.2268 -4.3941 5.8176 4.7800 5.9926 3.8745 2.2888 2.0584 -0.0000 0.0000 0.0000 -80.1739 -27.6798 49.9227 22.0354 -33.0171 -6.6051 -0.0000 0.0000 -11.3856 27.7089 49.1199 21.6581 -7.1250 0.0000 -0.0000 -39.5917 80.5129 -33.1413 -0.0000 0.0000 0.0000 56.1656 -21.4529 -5.2636 -12.1751 20.0667 -2.1620 0.0000 0.0000 1.6761 -14.5316 13.3819 -3.4331 7.1250 -0.0000 -0.0000 8.8135 -16.2776 6.0628
0.00 0.00 0.00 -2.9367 -3.2394 27.2362 0.0000 0.0000 0.0000 -10.4558 12.5678 -104.0962 22.7894 19.8124 98.1801 1.4285 -6.9809 -21.3845 0.1086 -2.1247 -5.8504 0.0000 0.0000 0.0000 6.8838 8.7584 -97.9923 -21.9909 -19.9047 95.8298 -2.0404 -2.5982 -28.0244 -0.0872 1.9050 -5.2433 -4.5382 -6.4679 15.7189 3.2060 -9.0633 1.6653 7.7296 -4.3087 -5.7057 -11.3671 4.3087 -2.4434 4.7397 6.0073 3.2519 3.6296 2.9362 0.9591 -0.0000 0.0000 0.0000 -79.8499 -27.7691 44.6511 15.7850 -25.2283 -3.5538 -0.0000 0.0000 -8.6019 30.1152 50.2169 24.0244 -7.1250 0.0000 -0.0000 -43.4408 82.2151 -37.8084 -0.0000 0.0000 0.0000 60.1471 -21.6068 -6.9887 -12.4393 20.4601 -2.2535 0.0000 -0.0000 -1.5129 -17.0256 12.4679 -3.7824 7.1250 -0.0000 -0.0000 7.0910 -17.0218 4.7413
0.00 0.00 0.00 -2.9794 -5.6885 19.4941 0.0000 0.0000 0.0000 -8.1745 19.0396 -109.0583 28.5168 18.1636 115.6588 1.9171 -8.4741 -24.8352 0.1263 -2.2913 -6.3115 0.0000 0.0000 0.0000 3.6757 8.2723 -103.1944 -27.6447 -18.5368 112.8894 -2.4621 -0.3240 -29.8456 -0.0455 1.3768 -3.7861 -6.9568 -6.8166 22.4135 2.9180 -10.2216 3.9149 9.7764 -4.8336 -6.2461 -11.8786 5.3214 -4.9355 3.3729 7.7314 2.4973 3.3272 3.8084 1.0427 0.0000 0.0000 0.0000 -78.1950 -30.9435 30.2033 10.2233 -17.0881 -1.5399 -0.0000 0.0000 -4.1274 31.3930 51.4668 25.5177 -7.1250 0.0000 -0.0000 -51.7305 83.3682 -46.3195 0.0000 0.0000 0.0000 61.8556 -18.0426 -7.4399 -12.8369 21.0478 -2.3944 0.0000 -0.0000 -6.1806 -19.7621 12.3090 -4.3798 7.1250 -0.0000 -0.0000 5.1878 -16.9599 3.4632
0.00 0.00 0.00 -2.7375 -8.1957 7.9879 0.0000 0.0000 0.0000 -9.7559 32.8223 -114.1749 33.5585 14.8429 133.2713 2.6363 -12.5353 -29.3249 0.1710 -2.6641 -7.3450 0.0000 0.0000 0.0000 2.6767 2.7792 -106.4919 -32.6445 -15.6241 129.7937 -2.6015 4.5396 -29.4908 -0.0003 0.1139 -0.3131 -8.5544 -7.3081 28.2944 3.1363 -11.5381 6.1822 11.9426 -5.5743 -5.9827 -13.3686 6.6619 -4.7031 1.2349 9.5510 0.3407 2.7856 4.7557 0.1877 -0.0000 0.0000 0.0000 -74.0470 -33.8337 10.7090 8.4180 -14.2282 -1.0525 -0.0000 0.0000 -7.1727 39.3255 51.5737 32.6922 -7.1250 0.0000 -0.0000 -56.2907 87.2339 -53.9573 -0.0000 0.0000 0.0000 61.6800 -16.9917 -11.4660 -13.7326 22.3512 -2.7256 0.0000 -0.0000 -11.3827 -24.1610 10.7946 -4.8026 7.1250 -0.0000 -0.0000 2.0541 -18.1810 1.3114
0.00 0.00 0.00 -1.0524 -10.0973 -4.8718 0.0000 0.0000 0.0000 -48.3730 64.1668 -154.7057 37.1631 10.4262 149.6316 3.7944 -25.5562 -37.2280 0.0079 -0.5747 -1.5792 0.0000 0.0000 0.0000 6.2151 -16.4179 -113.1662 -36.3805 -11.6361 145.5434 -2.4072 12.3658 -28.0118 -0.1029 2.0685 -5.6950 -10.3068 -9.3014 30.2541 4.1199 -14.8113 7.0207 14.0210 -7.5126 -4.2780 -15.8366 8.2382 -2.5861 -0.0382 11.2245 -2.5630 2.5604 5.7359 -1.3326 0.0000 -0.0000 0.0000 -59.6717 -33.3415 -5.2029 11.8201 -19.5343 -2.0417 -0.0000 0.0000 -27.0639 44.3711 52.0953 37.6645 -7.1250 0.0000 -0.0000 -138.7221 -88.8386 139.4941 0.0000 -0.0000 0.0000 58.0631 -18.0853 -18.5597 -14.6771 23.6943 -3.0950 0.0000 -0.0000 -18.9280 -30.3347 8.8397 -5.1384 7.1250 -0.0000 -0.0000 -2.4467 -19.7702 -1.4762
